<svg id="Group_80" data-name="Group 80" xmlns="http://www.w3.org/2000/svg" width="131" height="60" viewBox="0 0 131 60">
  <g id="anthera" transform="translate(43 35)">
    <g id="anthera-2" style="isolation: isolate">
      <text id="anthera-2-2" data-name="anthera" transform="translate(0 19)" fill="#cac1c1" font-size="25" font-family="MyriadHebrew-Bold, Myriad Hebrew" font-weight="700" style="isolation: isolate"><tspan x="0" y="0">anthera</tspan></text>
    </g>
  </g>
  <g id="anthera-3" data-name="anthera" transform="translate(51.327 14.286)">
    <g id="anthera-2-3" data-name="anthera-2" style="isolation: isolate">
      <text id="White" transform="translate(0 19)" fill="#cac1c1" font-size="25" font-family="MyriadHebrew-Bold, Myriad Hebrew" font-weight="700" style="isolation: isolate"><tspan x="0" y="0">White</tspan></text>
    </g>
  </g>
  <path id="Path_26" data-name="Path 26" d="M1178.475,108.638h-23.018l-.006-.008-1.031.008h-.081L1146,108.7l10.748,11.2,13-.084h9.608a8.416,8.416,0,0,1,.908.049c1.158-2.268,2.913-5.557,3.222-5.423s-.887,3.355-1.816,5.733a5.032,5.032,0,0,1,1.153.564c1.927-1.683,4.8-4.1,5.04-3.86s-2.231,2.949-4,4.825a4.1,4.1,0,0,1,.413.662c2.293-1.145,5.725-2.783,5.894-2.491s-3.266,2.528-5.462,3.894a5.349,5.349,0,0,1,.055.594c2.368-.531,7.176-1.539,7.279-1.17.109.4-5.067,2.062-7.274,2.741V131c0,2.955-2.1,4.793-5.49,4.793h-9.644l-6.855.046-4.229-.1-4.214-.025v29.646h12.511V146.991h11.7c11.3,0,18.728-6.552,18.728-16.539v-5.274C1197.284,115.189,1189.777,108.638,1178.475,108.638Z" transform="translate(-1146.002 -108.63)" fill="#cac1c1"/>
  <path id="Path_16" data-name="Path 16" d="M1156.648,118.874l3.2,3.241-.068,11.337-3.136,3.1v4.957h4.668l7.919-7.825.068-11.337-7.79-7.882h-4.866Z" transform="translate(-1146.002 -108.63)" fill="#022340"/>
</svg>
